<svg xmlns="http://www.w3.org/2000/svg"
     viewBox="-150 -150 300 300">
  <path d="M 85,40 L 84.51963201008076,44.877258050403206 L 83.09698831278217,49.56708580912724 L 80.78674030756363,53.889255825490054 L 77.67766952966369,57.67766952966369 L 73.88925582549005,60.78674030756363 L 69.56708580912725,63.09698831278217 L 64.87725805040321,64.51963201008076 L 60,65 L 55.122741949596794,64.51963201008076 L 50.43291419087276,63.09698831278217 L 46.11074417450995,60.78674030756363 L 42.32233047033631,57.67766952966369 L 39.21325969243637,53.889255825490054 L 36.90301168721783,49.56708580912725 L 35.48036798991924,44.87725805040321 L 35,40 L 35.48036798991924,35.122741949596794 L 36.90301168721783,30.432914190872758 L 39.21325969243637,26.110744174509954 L 42.32233047033631,22.322330470336315 L 46.110744174509946,19.21325969243637 L 50.432914190872744,16.903011687217838 L 55.12274194959679,15.480367989919241 L 59.99999999999999,15 L 64.87725805040321,15.480367989919237 L 69.56708580912725,16.903011687217834 L 73.88925582549004,19.213259692436363 L 77.67766952966369,22.322330470336308 L 80.78674030756363,26.110744174509946 L 83.09698831278216,30.43291419087274 L 84.51963201008076,35.12274194959678 Z" fill="black" stroke="none"/>
</svg>
